<svg width="24" height="24" viewBox="0 0 24 24" fill="none" xmlns="http://www.w3.org/2000/svg">
<path fill-rule="evenodd" clip-rule="evenodd" d="M9.8774 1.99988C6.92787 1.99988 4.5594 4.36798 4.5594 7.31788C4.5594 10.2671 6.92819 12.6359 9.8774 12.6359C12.8273 12.6359 15.1954 10.2674 15.1954 7.31788C15.1954 4.36766 12.8276 1.99988 9.8774 1.99988ZM9.8774 3.49988C11.9992 3.49988 13.6954 5.19609 13.6954 7.31788C13.6954 9.43904 11.9988 11.1359 9.8774 11.1359C7.75661 11.1359 6.0594 9.43866 6.0594 7.31788C6.0594 5.19646 7.75624 3.49988 9.8774 3.49988ZM9.8774 14.4562C4.84739 14.4562 2.0004 15.4106 2.0004 18.1152C2.0004 20.8227 4.86002 21.7952 9.8774 21.7952L10.5209 21.7897C15.1484 21.7088 17.7544 20.7224 17.7544 18.1362C17.7544 15.4875 15.0178 14.4993 10.2016 14.4576L9.8774 14.4562ZM9.8774 15.9562C14.0789 15.9562 16.2544 16.696 16.2544 18.1362C16.2544 19.5674 14.0842 20.2952 9.8774 20.2952C5.67593 20.2952 3.5004 19.5553 3.5004 18.1152C3.5004 16.722 5.55376 15.996 9.54068 15.9578L9.8774 15.9562ZM19.2041 7.91908C19.5838 7.91908 19.8976 8.20123 19.9473 8.56731L19.9541 8.66908V9.92398H21.25C21.6642 9.92398 22 10.2598 22 10.674C22 11.0537 21.7178 11.3675 21.3518 11.4171L21.25 11.424H19.9541V12.6791C19.9541 13.0933 19.6183 13.4291 19.2041 13.4291C18.8244 13.4291 18.5106 13.1469 18.4609 12.7808L18.4541 12.6791V11.424H17.16C16.7458 11.424 16.41 11.0882 16.41 10.674C16.41 10.2943 16.6922 9.98049 17.0582 9.93082L17.16 9.92398H18.4541V8.66908C18.4541 8.25486 18.7899 7.91908 19.2041 7.91908Z" fill="#200E32"/>
</svg>
