<svg width="24" height="24" viewBox="0 0 24 24" fill="none" xmlns="http://www.w3.org/2000/svg">
<path fill-rule="evenodd" clip-rule="evenodd" d="M16.518 6.06003C16.4068 3.66086 14.4269 1.74992 12.0009 1.74992C9.51522 1.73922 7.48716 3.73941 7.46112 6.22426H7.25778C4.49177 6.22426 2.25 8.46476 2.25 11.2293V16.7453C2.25 19.5098 4.49177 21.7503 7.25778 21.7503H16.7422C19.5082 21.7503 21.75 19.5098 21.75 16.7453V11.2293C21.75 8.46476 19.5082 6.22426 16.7422 6.22426H16.5218L16.518 6.06003ZM15.0229 7.72426V9.30496L15.0297 9.40673C15.0794 9.7728 15.3932 10.055 15.7729 10.055C16.1871 10.055 16.5229 9.71917 16.5229 9.30496V7.72426H16.7422C18.68 7.72426 20.25 9.29337 20.25 11.2293V16.7453C20.25 18.6811 18.68 20.2503 16.7422 20.2503H7.25778C5.32 20.2503 3.75 18.6811 3.75 16.7453V11.2293C3.75 9.29337 5.32 7.72426 7.25778 7.72426H7.4609L7.4609 9.30496L7.46775 9.40673C7.51741 9.7728 7.8312 10.055 8.2109 10.055C8.62511 10.055 8.9609 9.71917 8.9609 9.30496V7.72426H15.0229ZM15.0225 6.22426C14.9965 4.57705 13.6535 3.24992 11.9977 3.24991C10.3872 3.24299 9.0656 4.49527 8.9668 6.0787L8.96195 6.22426H15.0225Z" fill="#200E32"/>
</svg>
