<svg width="24" height="24" viewBox="0 0 24 24" fill="none" xmlns="http://www.w3.org/2000/svg">
<path fill-rule="evenodd" clip-rule="evenodd" d="M11.3722 3.39514V13.6193L9.73763 11.9792L9.65366 11.9064C9.36049 11.688 8.94378 11.7113 8.67697 11.977C8.38347 12.2693 8.3825 12.7442 8.67479 13.0377L11.5908 15.9657L11.593 15.9676C11.6177 15.9922 11.644 16.015 11.6719 16.036L11.675 16.0387C11.9691 16.2576 12.3871 16.2333 12.6536 15.9657L15.5696 13.0377L15.6421 12.9534C15.8593 12.6594 15.8343 12.2427 15.5674 11.977L15.4832 11.9046C15.1891 11.6873 14.7725 11.7124 14.5068 11.9792L12.8722 13.6199V3.39514L12.8654 3.29337C12.8157 2.9273 12.5019 2.64514 12.1222 2.64514C11.708 2.64514 11.3722 2.98093 11.3722 3.39514ZM17.9053 21.1172C20.2528 21.0085 22.122 19.0714 22.122 16.697V11.813L22.1172 11.6042C22.0082 9.25121 20.0674 7.37804 17.688 7.37804H16.755L16.6532 7.38489C16.2872 7.43455 16.005 7.74835 16.005 8.12804C16.005 8.54226 16.3408 8.87804 16.755 8.87804H17.688L17.8605 8.88302C19.401 8.97224 20.622 10.2493 20.622 11.813V16.697L20.617 16.8689C20.5281 18.4047 19.2551 19.622 17.697 19.622H6.55701L6.38457 19.6171C4.84403 19.5278 3.62201 18.2499 3.62201 16.687V11.802L3.62698 11.6303C3.71597 10.0956 4.98965 8.87804 6.54701 8.87804H7.48901L7.59078 8.87119C7.95686 8.82153 8.23901 8.50774 8.23901 8.12804C8.23901 7.71383 7.90322 7.37804 7.48901 7.37804H6.54701L6.33266 7.38314C3.98881 7.49497 2.12201 9.43081 2.12201 11.802V16.687L2.12684 16.8958C2.23586 19.2481 4.17777 21.122 6.55701 21.122H17.697L17.9053 21.1172Z" fill="#200E32"/>
</svg>
