<svg width="24" height="24" viewBox="0 0 24 24" fill="none" xmlns="http://www.w3.org/2000/svg">
<path fill-rule="evenodd" clip-rule="evenodd" d="M11.8724 1.99981C14.7264 1.99981 17.0544 4.25642 17.169 7.08238L17.1734 7.30085V8.87671C18.95 9.49336 20.2252 11.1818 20.2252 13.1687V17.4577C20.2252 19.9666 18.1917 21.9997 15.6832 21.9997H8.04221C5.53368 21.9997 3.50021 19.9666 3.50021 17.4577V13.1687C3.50021 11.1817 4.77566 9.49311 6.55242 8.87657L6.55242 7.27757C6.56523 4.34957 8.94827 1.98705 11.8724 1.99981ZM15.6734 7.30085V8.62665H8.05241V7.28085L8.05821 7.08554C8.16876 5.08031 9.83576 3.49094 11.8691 3.4998C13.9712 3.49981 15.6734 5.20205 15.6734 7.30085ZM15.6832 10.1267H8.04221C6.36205 10.1267 5.00021 11.4882 5.00021 13.1687V17.4577C5.00021 19.1381 6.36205 20.4997 8.04221 20.4997H15.6832C17.3634 20.4997 18.7252 19.1381 18.7252 17.4577V13.1687C18.7252 11.4882 17.3634 10.1267 15.6832 10.1267ZM12.6061 14.101C12.5564 13.7349 12.2426 13.4528 11.8629 13.4528C11.4487 13.4528 11.1129 13.7885 11.1129 14.2028V16.4238L11.1198 16.5255C11.1694 16.8916 11.4832 17.1738 11.8629 17.1738C12.2771 17.1738 12.6129 16.838 12.6129 16.4238V14.2028L12.6061 14.101Z" fill="#200E32"/>
</svg>
