<svg width="24" height="24" viewBox="0 0 24 24" fill="none" xmlns="http://www.w3.org/2000/svg">
<path fill-rule="evenodd" clip-rule="evenodd" d="M11.331 2.02148C13.7102 2.02148 15.6522 3.89542 15.7612 6.24772L15.766 6.45648V7.38948C15.766 7.8037 15.4302 8.13948 15.016 8.13948C14.6363 8.13948 14.3225 7.85733 14.2729 7.49125L14.266 7.38948V6.45648C14.266 4.89358 13.044 3.61575 11.5034 3.52647L11.331 3.52148H6.456C4.89395 3.52148 3.61626 4.74362 3.52699 6.28406L3.522 6.45648V17.5865C3.522 19.1493 4.74391 20.4272 6.28366 20.5165L6.456 20.5215H11.341C12.8984 20.5215 14.172 19.3039 14.261 17.7693L14.266 17.5975V16.6545C14.266 16.2403 14.6018 15.9045 15.016 15.9045C15.3957 15.9045 15.7095 16.1866 15.7592 16.5527L15.766 16.6545V17.5975C15.766 19.9687 13.8992 21.9046 11.5554 22.0164L11.341 22.0215H6.456C4.07756 22.0215 2.13584 20.1474 2.02683 17.7952L2.022 17.5865V6.45648C2.022 4.07743 3.89576 2.13535 6.24731 2.02631L6.456 2.02148H11.331ZM22.3282 11.4797C22.4707 11.6162 22.5595 11.8084 22.5595 12.0214C22.5595 12.2365 22.469 12.4304 22.3239 12.5672L19.4104 15.4687C19.1169 15.761 18.6421 15.76 18.3498 15.4665C18.0841 15.1997 18.0607 14.783 18.2792 14.4898L18.352 14.4059L19.992 12.7714H9.7685C9.35429 12.7714 9.0185 12.4356 9.0185 12.0214C9.0185 11.6417 9.30066 11.3279 9.66673 11.2782L9.7685 11.2714H19.9937L18.3521 9.63779C18.0852 9.37212 18.0601 8.95551 18.2773 8.66142L18.3497 8.57714C18.6154 8.31028 19.032 8.28514 19.3261 8.50234L19.4104 8.57478L22.3282 11.4797Z" fill="#200E32"/>
</svg>
