<svg width="24" height="24" viewBox="0 0 24 24" fill="none" xmlns="http://www.w3.org/2000/svg">
<path fill-rule="evenodd" clip-rule="evenodd" d="M14.6063 2.01194C14.5632 2.00426 14.5189 2.00024 14.4736 2.00024C14.4283 2.00024 14.384 2.00426 14.3409 2.01194H8.08431C5.59701 2.01194 3.50031 4.02977 3.50031 6.49094V17.3399C3.50031 19.9222 5.48575 21.8649 8.08431 21.8649H16.0723C18.5409 21.8649 20.5523 19.82 20.5523 17.3399V8.03794C20.5523 7.8443 20.4774 7.65817 20.3433 7.51849L15.2773 2.24249C15.1359 2.0952 14.9405 2.01194 14.7363 2.01194H14.6063ZM13.7236 3.51114L8.08431 3.51194C6.41284 3.51194 5.00031 4.87134 5.00031 6.49094V17.3399C5.00031 19.0864 6.30697 20.3649 8.08431 20.3649H16.0723C17.7068 20.3649 19.0523 18.9971 19.0523 17.3399L19.052 8.98333L18.1755 8.98631C17.842 8.98591 17.4627 8.9852 17.041 8.98424C15.2707 8.9805 13.8264 7.59372 13.7289 5.84765L13.7236 5.65924V3.51114ZM18.231 7.48408L17.0443 7.48425C16.0379 7.48212 15.2236 6.66581 15.2236 5.65924V4.35209L18.231 7.48408ZM14.2944 12.1642C14.7086 12.1642 15.0444 12.5 15.0444 12.9142C15.0444 13.2939 14.7623 13.6077 14.3962 13.6574L14.2944 13.6642H12.5937V15.3654C12.5937 15.7797 12.2579 16.1154 11.8437 16.1154C11.464 16.1154 11.1502 15.8333 11.1006 15.4672L11.0937 15.3654V13.6642H9.3934C8.97919 13.6642 8.6434 13.3285 8.6434 12.9142C8.6434 12.5345 8.92556 12.2208 9.29163 12.1711L9.3934 12.1642H11.0937V10.4644C11.0937 10.0502 11.4295 9.71444 11.8437 9.71444C12.2234 9.71444 12.5372 9.9966 12.5869 10.3627L12.5937 10.4644V12.1642H14.2944Z" fill="#200E32"/>
</svg>
