<svg width="24" height="24" viewBox="0 0 24 24" fill="none" xmlns="http://www.w3.org/2000/svg">
<path fill-rule="evenodd" clip-rule="evenodd" d="M14.6064 2.01194C14.5633 2.00426 14.519 2.00024 14.4737 2.00024C14.4284 2.00024 14.3841 2.00426 14.341 2.01194H8.0844C5.5971 2.01194 3.5004 4.02977 3.5004 6.49094V17.2279C3.5004 19.8255 5.50124 21.8649 8.0844 21.8649H16.0724C18.5281 21.8649 20.5524 19.7229 20.5524 17.2279V8.03794C20.5524 7.8443 20.4775 7.65817 20.3434 7.51849L15.2774 2.24249C15.136 2.0952 14.9406 2.01194 14.7364 2.01194H14.6064ZM13.7237 3.51114L8.0844 3.51194C6.41294 3.51194 5.0004 4.87134 5.0004 6.49094V17.2279C5.0004 19.0034 6.33616 20.3649 8.0844 20.3649H16.0724C17.6801 20.3649 19.0524 18.9129 19.0524 17.2279L19.052 8.98333L18.1756 8.98631C17.8421 8.98591 17.4628 8.9852 17.0411 8.98424C15.2708 8.9805 13.8265 7.59372 13.7289 5.84765L13.7237 5.65924V3.51114ZM18.231 7.48408L17.0444 7.48425C16.038 7.48212 15.2237 6.66581 15.2237 5.65924V4.3522L18.231 7.48408ZM11.6407 8.69084C12.0204 8.69084 12.3342 8.973 12.3839 9.33907L12.3907 9.44084V14.1967L13.9479 12.634C14.2401 12.3405 14.715 12.3395 15.0085 12.6318C15.2753 12.8975 15.3004 13.3141 15.0832 13.6082L15.0107 13.6925L12.1729 16.5423L12.1717 16.5435C12.1716 16.5436 12.1715 16.5437 12.1714 16.5438C11.9048 16.8111 11.4869 16.8353 11.193 16.6164L11.1862 16.6105C11.1612 16.5914 11.1374 16.5708 11.1151 16.5488L11.1088 16.5434L8.27076 13.6924C7.97854 13.3988 7.97962 12.9239 8.27318 12.6317C8.54006 12.366 8.95678 12.3428 9.24989 12.5613L9.33384 12.6341L10.8907 14.1989V9.44084C10.8907 9.02663 11.2265 8.69084 11.6407 8.69084Z" fill="#200E32"/>
</svg>
