<svg width="24" height="24" viewBox="0 0 24 24" fill="none" xmlns="http://www.w3.org/2000/svg">
<path fill-rule="evenodd" clip-rule="evenodd" d="M14.4738 2.00024C14.5191 2.00024 14.5634 2.00426 14.6065 2.01194H14.7365C14.9407 2.01194 15.1361 2.0952 15.2775 2.24249L20.3435 7.51849C20.4776 7.65817 20.5525 7.8443 20.5525 8.03794V17.3399C20.5525 19.82 18.5411 21.8649 16.0725 21.8649H8.0845C5.48595 21.8649 3.5005 19.9222 3.5005 17.3399V6.49094C3.5005 4.02948 5.59652 2.01194 8.0845 2.01194H14.3411C14.3842 2.00426 14.4285 2.00024 14.4738 2.00024ZM8.0845 3.51194L13.7238 3.51114V5.65924L13.7291 5.84765C13.8266 7.59372 15.2709 8.9805 17.0412 8.98424C17.4629 8.9852 17.8422 8.98591 18.1757 8.98631L19.052 8.98333L19.0525 17.3399C19.0525 18.9971 17.707 20.3649 16.0725 20.3649H8.0845C6.30717 20.3649 5.0005 19.0864 5.0005 17.3399V6.49094C5.0005 4.87098 6.41241 3.51194 8.0845 3.51194ZM17.0445 7.48425L18.231 7.48408L15.2238 4.3523V5.65924C15.2238 6.66581 16.0381 7.48212 17.0445 7.48425ZM15.0441 13.7472C15.0441 13.333 14.7083 12.9972 14.2941 12.9972H9.3931L9.29133 13.0041C8.92526 13.0538 8.6431 13.3675 8.6431 13.7472C8.6431 14.1615 8.97889 14.4972 9.3931 14.4972H14.2941L14.3959 14.4904C14.7619 14.4407 15.0441 14.1269 15.0441 13.7472Z" fill="#200E32"/>
</svg>
