<svg width="24" height="24" viewBox="0 0 24 24" fill="none" xmlns="http://www.w3.org/2000/svg">
<path fill-rule="evenodd" clip-rule="evenodd" d="M14.6067 2.01194C14.5636 2.00426 14.5193 2.00024 14.474 2.00024C14.4287 2.00024 14.3844 2.00426 14.3413 2.01194H8.08369C5.5964 2.01194 3.49969 4.02977 3.49969 6.49094V17.2039C3.49969 19.8045 5.50429 21.8649 8.08369 21.8649H16.0727C18.526 21.8649 20.5517 19.703 20.5517 17.2039V8.03794C20.5517 7.84433 20.4768 7.65821 20.3427 7.51854L15.2777 2.24254C15.1363 2.09522 14.9409 2.01194 14.7367 2.01194H14.6067ZM13.724 3.51114L8.08369 3.51194C6.41223 3.51194 4.99969 4.87134 4.99969 6.49094V17.2039C4.99969 18.9852 6.34208 20.3649 8.08369 20.3649H16.0727C17.675 20.3649 19.0517 18.8956 19.0517 17.2039L19.051 8.98333L18.1755 8.98631C17.8419 8.98591 17.4624 8.9852 17.0404 8.98424C15.2709 8.9805 13.8267 7.59353 13.7292 5.84763L13.724 5.65924V3.51114ZM18.2302 7.48408L17.0437 7.48425C16.0382 7.48212 15.224 6.6657 15.224 5.65924V4.35269L18.2302 7.48408ZM14.284 14.8078C14.6982 14.8078 15.034 15.1436 15.034 15.5578C15.034 15.9375 14.7518 16.2513 14.3858 16.301L14.284 16.3078H8.88699C8.47278 16.3078 8.13699 15.9721 8.13699 15.5578C8.13699 15.1781 8.41915 14.8644 8.78522 14.8147L8.88699 14.8078H14.284ZM12.9925 10.6056C12.9925 10.1914 12.6567 9.85564 12.2425 9.85564H8.88649L8.78472 9.86249C8.41865 9.91215 8.13649 10.2259 8.13649 10.6056C8.13649 11.0199 8.47228 11.3556 8.88649 11.3556H12.2425L12.3443 11.3488C12.7103 11.2991 12.9925 10.9853 12.9925 10.6056Z" fill="#200E32"/>
</svg>
