<svg width="24" height="24" viewBox="0 0 24 24" fill="none" xmlns="http://www.w3.org/2000/svg">
<path fill-rule="evenodd" clip-rule="evenodd" d="M14.6063 2.01194C14.5632 2.00426 14.5189 2.00024 14.4736 2.00024C14.4283 2.00024 14.384 2.00426 14.3409 2.01194H8.0843C5.597 2.01194 3.5003 4.02977 3.5003 6.49094V17.2279C3.5003 19.8255 5.50114 21.8649 8.0843 21.8649H16.0723C18.528 21.8649 20.5523 19.7229 20.5523 17.2279V8.03794C20.5523 7.8443 20.4774 7.65817 20.3433 7.51849L15.2773 2.24249C15.1359 2.0952 14.9405 2.01194 14.7363 2.01194H14.6063ZM13.7236 3.51114L8.0843 3.51194C6.41283 3.51194 5.0003 4.87134 5.0003 6.49094V17.2279C5.0003 19.0034 6.33606 20.3649 8.0843 20.3649H16.0723C17.68 20.3649 19.0523 18.9129 19.0523 17.2279L19.052 8.98333L18.1755 8.98631C17.842 8.98591 17.4627 8.9852 17.041 8.98424C15.2707 8.9805 13.8264 7.59372 13.7288 5.84765L13.7236 5.65924V3.51114ZM18.231 7.48408L17.0443 7.48425C16.0379 7.48212 15.2236 6.66581 15.2236 5.65924V4.35209L18.231 7.48408ZM10.8906 11.256V16.0136L10.8974 16.1154C10.9471 16.4815 11.2609 16.7636 11.6406 16.7636C12.0548 16.7636 12.3906 16.4279 12.3906 16.0136V11.2568L13.9478 12.8205L14.0317 12.8932C14.3249 13.1117 14.7416 13.0884 15.0084 12.8227C15.3019 12.5304 15.3029 12.0555 15.0106 11.762L12.1731 8.91247C12.1469 8.88605 12.1187 8.86157 12.0888 8.83926L12.0874 8.83804C11.7933 8.61905 11.3751 8.64342 11.1087 8.91113L8.27066 11.7621L8.19823 11.8464C7.98105 12.1405 8.00621 12.5571 8.27308 12.8228L8.35736 12.8952C8.65147 13.1124 9.06808 13.0872 9.33374 12.8204L10.8906 11.256Z" fill="#200E32"/>
</svg>
