<svg width="24" height="24" viewBox="0 0 24 24" fill="none" xmlns="http://www.w3.org/2000/svg">
<path fill-rule="evenodd" clip-rule="evenodd" d="M7.35854 3.23015C7.06443 3.01108 6.64618 3.03542 6.37966 3.30317L2.30188 7.39984L2.22946 7.48412C2.01228 7.77824 2.03745 8.19485 2.30433 8.4605L2.38862 8.53292C2.68273 8.7501 3.09934 8.72493 3.36499 8.45805L6.1611 5.64845V17.4506L6.16795 17.5524C6.21761 17.9185 6.53141 18.2006 6.9111 18.2006C7.32532 18.2006 7.6611 17.8648 7.6611 17.4506V5.64858L10.4574 8.45805L10.5414 8.53086C10.8345 8.74939 11.2512 8.72615 11.5181 8.4605C11.8117 8.16828 11.8128 7.69341 11.5205 7.39984L7.44277 3.30317L7.43757 3.29867C7.41468 3.27611 7.39035 3.255 7.36473 3.23551L7.35854 3.23015ZM17.5827 6.44462C17.533 6.07854 17.2192 5.79639 16.8395 5.79639C16.4253 5.79639 16.0895 6.13217 16.0895 6.54639V18.3481L13.2932 15.5389L13.2093 15.4661C12.9162 15.2476 12.4994 15.2708 12.2326 15.5365C11.939 15.8287 11.9379 16.3036 12.2301 16.5972L16.3079 20.6938L16.3131 20.6983C16.336 20.7209 16.3603 20.742 16.3859 20.7615L16.3921 20.7668C16.6862 20.9859 17.1045 20.9616 17.371 20.6938L21.4488 16.5972L21.5212 16.5129C21.7384 16.2188 21.7132 15.8021 21.4463 15.5365C21.1527 15.2443 20.6779 15.2454 20.3857 15.5389L17.5895 18.3471V6.54639L17.5827 6.44462Z" fill="#200E32"/>
</svg>
