<svg width="24" height="24" viewBox="0 0 24 24" fill="none" xmlns="http://www.w3.org/2000/svg">
<path fill-rule="evenodd" clip-rule="evenodd" d="M17.8563 2.99976H6.14431C3.85609 2.99976 2.00131 4.85454 2.00131 7.14276L2.00031 9.93249C2.00016 10.3468 2.33599 10.6828 2.75031 10.6828C3.60208 10.6828 4.23931 11.2856 4.23931 12.0848C4.23931 12.9095 3.57509 13.5738 2.75031 13.5738C2.33609 13.5738 2.00031 13.9095 2.00031 14.3238V17.0238C2.00031 19.3121 3.85421 21.1668 6.14231 21.1668H17.8573C20.1462 21.1668 22.0003 19.3123 22.0003 17.0238V14.3238C22.0003 13.9095 21.6645 13.5738 21.2503 13.5738C20.4246 13.5738 19.7603 12.9096 19.7603 12.0848C19.7603 11.3078 20.3484 10.6744 21.1063 10.6025L21.2503 10.5958C21.6647 10.5958 22.0006 10.2596 22.0003 9.8452L21.9983 7.1422C21.9983 4.85442 20.1444 2.99976 17.8563 2.99976ZM17.8563 4.49976L18.0234 4.50495C19.405 4.59116 20.4983 5.73887 20.4983 7.14276L20.5 9.19096L20.4003 9.21767C19.1616 9.58268 18.2603 10.726 18.2603 12.0848L18.2654 12.2606C18.3393 13.5409 19.2156 14.6025 20.4004 14.9518L20.5 14.977L20.5003 17.0238C20.5003 18.4839 19.3177 19.6668 17.8573 19.6668H6.1423L5.97518 19.6616C4.59357 19.5753 3.50031 18.4276 3.50031 17.0238L3.50001 14.977L3.59979 14.9518C4.83799 14.5866 5.73931 13.4428 5.73931 12.0848L5.73427 11.9098C5.6608 10.6388 4.79006 9.62849 3.60302 9.29791L3.50001 9.27196L3.50131 7.14302C3.50131 5.68297 4.68452 4.49976 6.14431 4.49976H17.8563ZM10.431 9.87796L8.87682 10.1041L8.76625 10.1267C8.05148 10.3144 7.7892 11.2257 8.33761 11.7616L9.46301 12.858L9.19763 14.4083L9.18498 14.5154C9.13709 15.2553 9.9271 15.7886 10.6066 15.4343L11.999 14.702L13.3907 15.4331L13.4887 15.4779C14.1786 15.7503 14.9318 15.1664 14.802 14.4086L14.535 12.858L15.6618 11.7628L15.7382 11.6796C16.2075 11.1078 15.883 10.2167 15.1259 10.1044L13.568 9.87796L12.8713 8.46721C12.5167 7.74497 11.4872 7.74497 11.1292 8.46548L10.431 9.87796ZM11.999 10.09L12.3973 10.8953L12.4502 10.9858C12.5676 11.158 12.7526 11.275 12.9619 11.3054L13.847 11.434L13.2068 12.0587L13.1368 12.137C13.009 12.302 12.9548 12.5144 12.9906 12.7232L13.142 13.608L12.3489 13.1904L12.2529 13.1482C12.0566 13.0779 11.838 13.0919 11.6507 13.1904L10.857 13.607L11.009 12.7232L11.0195 12.6188C11.0258 12.4103 10.9447 12.2066 10.793 12.0589L10.152 11.434L11.0378 11.3054C11.282 11.2699 11.4931 11.1166 11.6023 10.8953L11.999 10.09Z" fill="#200E32"/>
</svg>
