<svg width="24" height="24" viewBox="0 0 24 24" fill="none" xmlns="http://www.w3.org/2000/svg">
<path fill-rule="evenodd" clip-rule="evenodd" d="M16.3344 2.00024H7.6654C4.26782 2.00024 2.0004 4.43284 2.0004 7.91624V16.0842C2.0004 19.5709 4.26177 22.0002 7.6654 22.0002H16.3334C19.738 22.0002 22.0004 19.5709 22.0004 16.0842V7.91624C22.0004 4.42975 19.7382 2.00024 16.3344 2.00024ZM7.6654 3.50024H16.3344C18.8849 3.50024 20.5004 5.23521 20.5004 7.91624V16.0842C20.5004 18.7654 18.8848 20.5002 16.3334 20.5002H7.6654C5.11516 20.5002 3.5004 18.7656 3.5004 16.0842V7.91624C3.5004 5.23862 5.12074 3.50024 7.6654 3.50024ZM16.0902 9.09691C15.7973 8.80402 15.3225 8.80402 15.0296 9.09691L10.813 13.312L8.97011 11.4698L8.88598 11.3972C8.59232 11.1794 8.17567 11.2037 7.90945 11.47C7.61662 11.763 7.61672 12.2379 7.90968 12.5307L10.2837 14.9037L10.3678 14.9763C10.6614 15.194 11.078 15.1698 11.3442 14.9036L16.0902 10.1576L16.1628 10.0735C16.3807 9.77984 16.3565 9.36318 16.0902 9.09691Z" fill="#200E32"/>
</svg>
