<svg width="24" height="24" viewBox="0 0 24 24" fill="none" xmlns="http://www.w3.org/2000/svg">
<path fill-rule="evenodd" clip-rule="evenodd" d="M9.5914 2.49976C6.74351 2.49976 4.4574 4.78622 4.4574 7.63376C4.4574 10.4821 6.74333 12.7688 9.5914 12.7688C12.4396 12.7688 14.7264 10.482 14.7264 7.63376C14.7264 4.78636 12.4394 2.49976 9.5914 2.49976ZM9.5914 3.99976C11.6111 3.99976 13.2264 5.61484 13.2264 7.63376C13.2264 9.65354 11.6112 11.2688 9.5914 11.2688C7.57186 11.2688 5.9574 9.65379 5.9574 7.63376C5.9574 5.6146 7.57199 3.99976 9.5914 3.99976ZM20.0671 7.61636C20.0671 5.38183 18.255 3.56936 16.0201 3.56936C15.6059 3.56936 15.2701 3.90514 15.2701 4.31936C15.2701 4.73357 15.6059 5.06936 16.0201 5.06936C17.4265 5.06936 18.5671 6.21019 18.5671 7.61636C18.5671 9.02314 17.4269 10.1634 16.0201 10.1634C15.6059 10.1634 15.2701 10.4991 15.2701 10.9134C15.2701 11.3276 15.6059 11.6634 16.0201 11.6634C18.2553 11.6634 20.0671 9.85157 20.0671 7.61636ZM19.2995 13.9938C18.7449 13.8708 18.1677 13.7876 17.5871 13.7481C17.1738 13.72 16.816 14.0322 16.7879 14.4455C16.7598 14.8587 17.072 15.2165 17.4853 15.2446C17.9909 15.279 18.4937 15.3515 18.9911 15.4616C19.7677 15.6163 20.2821 15.8732 20.4212 16.165C20.526 16.3856 20.526 16.6441 20.4208 16.8654C20.2827 17.1562 19.7709 17.4126 19.0021 17.5707C18.5964 17.6542 18.3351 18.0507 18.4186 18.4565C18.502 18.8622 18.8986 19.1234 19.3043 19.04C20.4991 18.7942 21.3732 18.3563 21.7756 17.5092C22.0744 16.8806 22.0744 16.1491 21.7756 15.5204C21.3709 14.6713 20.4876 14.2301 19.2995 13.9938ZM2.0004 18.0183C2.0004 15.3937 4.75799 14.4563 9.5914 14.4563L9.91118 14.4576C14.5556 14.4981 17.1834 15.4361 17.1834 17.9983C17.1834 20.5061 14.6649 21.4736 10.2235 21.5546L9.5914 21.5603C4.74706 21.5603 2.0004 20.6394 2.0004 18.0183ZM15.6834 17.9983C15.6834 16.6505 13.6128 15.9563 9.5914 15.9563C5.57405 15.9563 3.5004 16.6612 3.5004 18.0183C3.5004 19.3667 5.56908 20.0603 9.5914 20.0603C13.609 20.0603 15.6834 19.3552 15.6834 17.9983Z" fill="#200E32"/>
</svg>
