<svg width="24" height="24" viewBox="0 0 24 24" fill="none" xmlns="http://www.w3.org/2000/svg">
<path fill-rule="evenodd" clip-rule="evenodd" d="M21.526 2.76374C21.2331 2.47084 20.7582 2.47084 20.4653 2.76374L15.5766 7.65244C15.5694 7.54243 15.5608 7.44523 15.5507 7.35306L15.4908 6.90569L15.389 5.99709C15.3382 5.56347 15.2886 5.26463 15.21 4.96138C14.8561 3.77857 13.9039 3.00357 12.8102 3.0372L12.6551 3.04339C12.1717 3.09036 11.5402 3.38606 11.1182 3.74485L7.62299 6.60306L5.77834 6.60402L5.60111 6.60981C4.3169 6.69425 3.37921 7.69435 3.19317 9.02932C2.99835 10.5987 2.9921 13.2084 3.19325 14.6433C3.37388 16.1391 4.36324 17.1326 5.77834 17.1326H6.09644L3.31767 19.9114L3.24505 19.9955C3.0272 20.2891 3.0514 20.7058 3.31767 20.972C3.61056 21.2649 4.08544 21.2649 4.37833 20.972L21.526 3.8244L21.5986 3.74028C21.8164 3.44667 21.7922 3.03 21.526 2.76374ZM7.59644 15.6326L14.1121 9.117L14.0985 8.17097C14.0902 7.87962 14.0782 7.68888 14.0606 7.52611L13.9749 6.86657L13.9233 6.38652C13.87 5.89243 13.8262 5.60101 13.7655 5.36482C13.6049 4.82857 13.2318 4.52495 12.817 4.53667C12.7104 4.53436 12.3958 4.66686 12.1696 4.82683L12.0789 4.89675L8.36558 7.93452C8.25839 8.02221 8.12957 8.07808 7.99369 8.09692L7.89069 8.10402H5.77834C5.20497 8.10402 4.77603 8.5387 4.68028 9.2252C4.50254 10.6576 4.49661 13.1359 4.68057 14.4492C4.77003 15.1895 5.1145 15.5788 5.65869 15.6274L5.77834 15.6326H7.59644ZM14.8706 13.4416C15.2847 13.4475 15.6157 13.788 15.6098 14.2022L15.5932 15.0253C15.5726 15.786 15.5403 16.3611 15.4965 16.7704L15.3827 17.8277C15.3371 18.2105 15.2887 18.4776 15.2025 18.8006C14.8564 19.9571 13.9043 20.7316 12.8519 20.6981C12.3752 20.7099 11.8047 20.4946 11.3661 20.1775L11.2083 20.054L9.81166 18.9148C9.4907 18.6529 9.44277 18.1805 9.7046 17.8595C9.94263 17.5677 10.3547 17.5016 10.6688 17.6887L10.7598 17.7524L12.167 18.9006C12.3685 19.0712 12.6808 19.2018 12.8563 19.1987C13.2323 19.2102 13.6049 18.9072 13.7592 18.3929L13.8134 18.1638C13.8375 18.0476 13.8577 17.9249 13.8771 17.7786L13.9928 16.7175C14.0515 16.2443 14.0924 15.4109 14.1099 14.1808C14.1159 13.7666 14.4564 13.4356 14.8706 13.4416Z" fill="#200E32"/>
</svg>
