<svg width="20" height="20" viewBox="0 0 20 20" fill="none" xmlns="http://www.w3.org/2000/svg">
<rect x="-2.1875" y="0.0302734" width="30.625" height="20" rx="2" fill="white"/>
<mask id="mask0_153_36" style="mask-type:luminance" maskUnits="userSpaceOnUse" x="-3" y="0" width="32" height="21">
<rect x="-2.1875" y="0.0302734" width="30.625" height="20" rx="2" fill="white"/>
</mask>
<g mask="url(#mask0_153_36)">
<path fill-rule="evenodd" clip-rule="evenodd" d="M28.4375 0.0302734H-2.1875V1.36361H28.4375V0.0302734ZM28.4375 2.69691H-2.1875V4.03025H28.4375V2.69691ZM-2.1875 5.3636H28.4375V6.69693H-2.1875V5.3636ZM28.4375 8.03023H-2.1875V9.36357H28.4375V8.03023ZM-2.1875 10.697H28.4375V12.0303H-2.1875V10.697ZM28.4375 13.3636H-2.1875V14.6969H28.4375V13.3636ZM-2.1875 16.0303H28.4375V17.3636H-2.1875V16.0303ZM28.4375 18.6969H-2.1875V20.0303H28.4375V18.6969Z" fill="#D02F44"/>
<rect x="-2.1875" y="0.0302734" width="13.125" height="9.33333" fill="#46467F"/>
<g filter="url(#filter0_d_153_36)">
<path fill-rule="evenodd" clip-rule="evenodd" d="M0.729085 2.03044C0.729085 2.39863 0.402626 2.6971 -8.13007e-05 2.6971C-0.402789 2.6971 -0.729248 2.39863 -0.729248 2.03044C-0.729248 1.66225 -0.402789 1.36377 -8.13007e-05 1.36377C0.402626 1.36377 0.729085 1.66225 0.729085 2.03044ZM3.64576 2.03044C3.64576 2.39863 3.3193 2.6971 2.91659 2.6971C2.51389 2.6971 2.18743 2.39863 2.18743 2.03044C2.18743 1.66225 2.51389 1.36377 2.91659 1.36377C3.3193 1.36377 3.64576 1.66225 3.64576 2.03044ZM5.83315 2.6971C6.23586 2.6971 6.56232 2.39863 6.56232 2.03044C6.56232 1.66225 6.23586 1.36377 5.83315 1.36377C5.43044 1.36377 5.10398 1.66225 5.10398 2.03044C5.10398 2.39863 5.43044 2.6971 5.83315 2.6971ZM9.47906 2.03044C9.47906 2.39863 9.1526 2.6971 8.74989 2.6971C8.34718 2.6971 8.02072 2.39863 8.02072 2.03044C8.02072 1.66225 8.34718 1.36377 8.74989 1.36377C9.1526 1.36377 9.47906 1.66225 9.47906 2.03044ZM1.45826 4.03044C1.86097 4.03044 2.18743 3.73196 2.18743 3.36377C2.18743 2.99558 1.86097 2.6971 1.45826 2.6971C1.05556 2.6971 0.729098 2.99558 0.729098 3.36377C0.729098 3.73196 1.05556 4.03044 1.45826 4.03044ZM5.1041 3.36377C5.1041 3.73196 4.77764 4.03044 4.37493 4.03044C3.97223 4.03044 3.64577 3.73196 3.64577 3.36377C3.64577 2.99558 3.97223 2.6971 4.37493 2.6971C4.77764 2.6971 5.1041 2.99558 5.1041 3.36377ZM7.29158 4.03044C7.69429 4.03044 8.02075 3.73196 8.02075 3.36377C8.02075 2.99558 7.69429 2.6971 7.29158 2.6971C6.88888 2.6971 6.56242 2.99558 6.56242 3.36377C6.56242 3.73196 6.88888 4.03044 7.29158 4.03044ZM9.47906 4.69708C9.47906 5.06527 9.1526 5.36375 8.74989 5.36375C8.34718 5.36375 8.02072 5.06527 8.02072 4.69708C8.02072 4.32889 8.34718 4.03041 8.74989 4.03041C9.1526 4.03041 9.47906 4.32889 9.47906 4.69708ZM5.83315 5.36375C6.23586 5.36375 6.56232 5.06527 6.56232 4.69708C6.56232 4.32889 6.23586 4.03041 5.83315 4.03041C5.43044 4.03041 5.10398 4.32889 5.10398 4.69708C5.10398 5.06527 5.43044 5.36375 5.83315 5.36375ZM3.64576 4.69708C3.64576 5.06527 3.3193 5.36375 2.91659 5.36375C2.51389 5.36375 2.18743 5.06527 2.18743 4.69708C2.18743 4.32889 2.51389 4.03041 2.91659 4.03041C3.3193 4.03041 3.64576 4.32889 3.64576 4.69708ZM-8.13007e-05 5.36375C0.402626 5.36375 0.729085 5.06527 0.729085 4.69708C0.729085 4.32889 0.402626 4.03041 -8.13007e-05 4.03041C-0.402789 4.03041 -0.729248 4.32889 -0.729248 4.69708C-0.729248 5.06527 -0.402789 5.36375 -8.13007e-05 5.36375ZM2.18743 6.03044C2.18743 6.39863 1.86097 6.69711 1.45826 6.69711C1.05556 6.69711 0.729098 6.39863 0.729098 6.03044C0.729098 5.66225 1.05556 5.36378 1.45826 5.36378C1.86097 5.36378 2.18743 5.66225 2.18743 6.03044ZM4.37493 6.69711C4.77764 6.69711 5.1041 6.39863 5.1041 6.03044C5.1041 5.66225 4.77764 5.36378 4.37493 5.36378C3.97223 5.36378 3.64577 5.66225 3.64577 6.03044C3.64577 6.39863 3.97223 6.69711 4.37493 6.69711ZM8.02075 6.03044C8.02075 6.39863 7.69429 6.69711 7.29158 6.69711C6.88888 6.69711 6.56242 6.39863 6.56242 6.03044C6.56242 5.66225 6.88888 5.36378 7.29158 5.36378C7.69429 5.36378 8.02075 5.66225 8.02075 6.03044ZM8.74989 8.03043C9.1526 8.03043 9.47906 7.73195 9.47906 7.36376C9.47906 6.99557 9.1526 6.6971 8.74989 6.6971C8.34718 6.6971 8.02072 6.99557 8.02072 7.36376C8.02072 7.73195 8.34718 8.03043 8.74989 8.03043ZM6.56232 7.36376C6.56232 7.73195 6.23586 8.03043 5.83315 8.03043C5.43044 8.03043 5.10398 7.73195 5.10398 7.36376C5.10398 6.99557 5.43044 6.6971 5.83315 6.6971C6.23586 6.6971 6.56232 6.99557 6.56232 7.36376ZM2.91659 8.03043C3.3193 8.03043 3.64576 7.73195 3.64576 7.36376C3.64576 6.99557 3.3193 6.6971 2.91659 6.6971C2.51389 6.6971 2.18743 6.99557 2.18743 7.36376C2.18743 7.73195 2.51389 8.03043 2.91659 8.03043ZM0.729085 7.36376C0.729085 7.73195 0.402626 8.03043 -8.13007e-05 8.03043C-0.402789 8.03043 -0.729248 7.73195 -0.729248 7.36376C-0.729248 6.99557 -0.402789 6.6971 -8.13007e-05 6.6971C0.402626 6.6971 0.729085 6.99557 0.729085 7.36376Z" fill="url(#paint0_linear_153_36)"/>
</g>
</g>
<defs>
<filter id="filter0_d_153_36" x="-0.729248" y="1.36377" width="10.2083" height="7.6665" filterUnits="userSpaceOnUse" color-interpolation-filters="sRGB">
<feFlood flood-opacity="0" result="BackgroundImageFix"/>
<feColorMatrix in="SourceAlpha" type="matrix" values="0 0 0 0 0 0 0 0 0 0 0 0 0 0 0 0 0 0 127 0" result="hardAlpha"/>
<feOffset dy="1"/>
<feColorMatrix type="matrix" values="0 0 0 0 0 0 0 0 0 0 0 0 0 0 0 0 0 0 0.06 0"/>
<feBlend mode="normal" in2="BackgroundImageFix" result="effect1_dropShadow_153_36"/>
<feBlend mode="normal" in="SourceGraphic" in2="effect1_dropShadow_153_36" result="shape"/>
</filter>
<linearGradient id="paint0_linear_153_36" x1="-0.729248" y1="1.36377" x2="-0.729248" y2="8.03044" gradientUnits="userSpaceOnUse">
<stop stop-color="white"/>
<stop offset="1" stop-color="#F0F0F0"/>
</linearGradient>
</defs>
</svg>
