<svg width="24" height="24" viewBox="0 0 24 24" fill="none" xmlns="http://www.w3.org/2000/svg">
<path fill-rule="evenodd" clip-rule="evenodd" d="M1.99988 12.0001C1.99988 6.4801 6.46988 2.0001 11.9999 2.0001C17.5199 2.0001 21.9999 6.4801 21.9999 12.0001C21.9999 17.5301 17.5199 22.0001 11.9999 22.0001C6.46988 22.0001 1.99988 17.5301 1.99988 12.0001ZM14.2299 13.8301L15.8499 8.7101C15.9599 8.3601 15.6399 8.0301 15.2899 8.1401L10.1699 9.7401C9.95988 9.8101 9.78988 9.9701 9.72988 10.1801L8.12988 15.3101C8.01988 15.6501 8.34988 15.9801 8.68988 15.8701L13.7899 14.2701C13.9999 14.2101 14.1699 14.0401 14.2299 13.8301Z" fill="#200E32"/>
</svg>
